<?xml version="1.0" encoding="utf-8"?>
<!-- Generator: Adobe Illustrator 24.3.0, SVG Export Plug-In . SVG Version: 6.00 Build 0)  -->
<svg version="1.0" xmlns="http://www.w3.org/2000/svg" xmlns:xlink="http://www.w3.org/1999/xlink" x="0px" y="0px"
	 viewBox="0 0 3034.67 2170.67" style="enable-background:new 0 0 3034.67 2170.67;" xml:space="preserve">
<style type="text/css">
	.st0{fill:#2B0117;}
	.st1{fill:#FFE25B;}
	.st2{fill:#FFB820;}
	.st3{fill:#C85E40;}
	.st4{fill:#FFFFFF;}
	.st5{fill:#A22222;}
	.st6{fill:#55161F;}
	.st7{fill:#FFBE20;}
</style>
<g id="Calque_4">
	<path class="st0" d="M2223.1,1084.93l120.06-408.06l5.71-19.39c9.7-32.95-10.08-67.32-43.44-75.49l-19.67-4.82l-416.31-102.04
		l-292.53-306.39l-13.97-14.63c-23.6-24.73-63.04-24.87-86.82-0.31l-14.25,14.72l-298.03,307.83l-414.98,101.2l-19.55,4.76
		c-33.41,8.14-53.23,42.55-43.51,75.53l5.73,19.45l120.5,408.93L692.58,1495.1l-5.69,19.49c-9.64,32.99,10.24,67.34,43.64,75.42
		l19.57,4.73l415.35,100.43l296.44,307.1l14.18,14.69c23.77,24.63,63.26,24.52,86.89-0.24l13.97-14.63l293.94-307.98l414.89-101.43
		l19.64-4.8c33.37-8.16,53.16-42.54,43.47-75.49l-5.71-19.41L2223.1,1084.93z M1519.42,1151.63l-57.54,33.17v-66.2l-57.96-33.21
		l57.96-33.38v-66.22l57.5,33.09l57.54-33.17v66.2l57.94,33.19l0.02,0.02l-0.19,0.12l-57.77,33.27v66.22L1519.42,1151.63z"/>
	<polygon class="st1" points="1634.86,1085.1 1634.65,1085.22 1576.92,1118.5 1519.5,1151.6 1519.48,1151.6 1519.42,1151.63 
		1461.88,1184.8 1461.88,985.79 1519.38,1018.88 1576.92,985.71 1576.92,1051.91 	"/>
	<polygon class="st1" points="1519.41,191.79 1519.41,1085.26 2294.49,638.52 1839.44,527 	"/>
	<polygon class="st2" points="1634.88,1085.12 1634.69,1085.24 1576.92,1118.5 1576.92,1184.73 1519.42,1151.63 1489.03,1134.15 
		1488.67,1133.94 1461.88,1118.52 1404.15,1085.29 1461.88,1052.03 1461.88,1052.01 1519.33,1018.92 1519.38,1018.88 
		1576.92,985.71 1576.92,1051.91 1634.86,1085.1 	"/>
	<polygon class="st2" points="2294.49,638.52 1519.41,1085.26 2294.49,1531.35 2163.15,1084.94 	"/>
	<polygon class="st3" points="1634.69,1085.24 1576.92,1118.5 1576.92,1184.73 1519.42,1151.63 1461.88,1184.8 1461.88,985.79 
		1519.38,1018.88 1547.18,1034.87 1550.9,1037.02 1576.92,1051.99 1634.65,1085.22 	"/>
	<polygon class="st3" points="2294.49,1531.35 1519.41,1085.26 1519.41,1979.05 1840.88,1642.24 	"/>
	<polygon class="st2" points="1576.92,985.75 1576.92,1184.73 1519.42,1151.63 1461.88,1184.8 1461.88,1118.6 1403.92,1085.39 
		1461.88,1052.01 1519.33,1018.92 1519.38,1018.88 	"/>
	<polygon class="st2" points="1519.41,1979.05 1519.41,1085.26 741.3,1533.43 1195.22,1643.2 	"/>
	<polygon class="st1" points="1634.88,1085.12 1634.69,1085.24 1576.92,1118.5 1519.5,1151.6 1519.48,1151.6 1519.42,1151.63 
		1461.88,1184.77 1461.88,1118.6 1403.92,1085.39 1461.88,1052.01 1461.88,986.02 1519.33,1018.92 1547.18,1034.87 1550.9,1037.02 
		1576.92,1051.91 1634.86,1085.1 	"/>
	<polygon class="st1" points="741.3,1533.43 1519.41,1085.26 740.18,638.84 871.99,1086.13 	"/>
	<polygon class="st4" points="1576.92,985.71 1576.92,1184.5 1519.5,1151.6 1519.48,1151.6 1489.03,1134.15 1488.67,1133.94 
		1461.88,1118.6 1403.92,1085.39 1461.88,1052.01 1461.88,985.79 1519.38,1018.88 	"/>
	<polygon class="st4" points="1519.41,191.79 1519.41,1085.26 740.18,638.84 1193.62,528.27 	"/>
	<path class="st1" d="M1519.25,1652.78c-296.92,0-574.97-256.12-538.61-581.35c0.06-0.5,0.12-1.02,0.17-1.51
		c12.23-106.62,42.09-207.07,87.08-294.04c96.13-147.35,262.46-244.73,451.51-244.73c191.31,0,359.34,99.72,454.92,250
		c43.43,85.74,72.07,184.27,83.37,288.77c0.15,1.48,0.31,2.97,0.46,4.45C2090.05,1394.42,1822.7,1652.78,1519.25,1652.78z"/>
</g>
<g id="Calque_3">
	<path class="st5" d="M2058.17,1069.92c0,1.48,0,2.97-0.02,4.45c-2.4,295.5-242.66,534.32-538.75,534.32
		c-297.05,0-537.94-240.39-538.77-537.25v-1.51c0-108.5,32.06-209.49,87.26-294.04c96.13-147.35,262.46-244.73,451.51-244.73
		c191.31,0,359.34,99.72,454.92,250C2027.42,864.61,2058.17,963.66,2058.17,1069.92z"/>
	<circle class="st6" cx="1517.33" cy="1081.42" r="438.43"/>
</g>
<g id="Calque_2">
	<path class="st7" d="M1889.64,1025.56c4.63,33.78,2.61,68.07-5.83,101.11c-41.35,161.83-176.93,227.97-365.83,227.97
		c-188.06,4.46-327.36-60.9-367.82-236.86c-6.35-27.61-8.09-56.13-4.84-84.27c21.53-186.73,180.17-331.71,372.67-331.71
		C1707.73,701.79,1864.58,842.68,1889.64,1025.56z"/>
	<path class="st7" d="M1688.54,1410.24h-342.42c-11.6,0-21-9.4-21-21v-81.58h384.42v81.58
		C1709.54,1400.84,1700.14,1410.24,1688.54,1410.24z"/>
	<polygon class="st6" points="1519.41,1175.85 1465.44,1269.32 1573.37,1269.32 	"/>
	<ellipse class="st6" cx="1690.37" cy="1137.02" rx="108.33" ry="112.64"/>
	<ellipse class="st6" cx="1352.92" cy="1137.02" rx="108.33" ry="112.64"/>
	<path class="st6" d="M1501.61,1048.97l-17.93,17.92c-5.18,5.18-13.57,5.18-18.75,0l-66.09-66.09c-5.18-5.18-5.18-13.57,0-18.75
		l17.92-17.92c5.18-5.18,13.57-5.18,18.75,0l66.09,66.09C1506.79,1035.4,1506.79,1043.79,1501.61,1048.97z"/>
	<path class="st6" d="M1639.18,982.06l-17.92-17.92c-5.18-5.18-13.57-5.18-18.75,0l-66.09,66.09c-5.18,5.18-5.18,13.57,0,18.75
		l17.93,17.92c5.18,5.18,13.57,5.18,18.75,0l66.09-66.09C1644.35,995.63,1644.35,987.23,1639.18,982.06z"/>
	
		<ellipse transform="matrix(0.8449 -0.5349 0.5349 0.8449 -253.7698 861.8708)" class="st4" cx="1359.38" cy="868.55" rx="132.67" ry="87.48"/>
</g>
</svg>
